<svg width="722" height="811" viewBox="0 0 722 811" fill="none" xmlns="http://www.w3.org/2000/svg">
<path d="M25 1C3.33333 39.1667 -23.3 127.9 43.5 177.5C127 239.5 260 214.5 282 196C304 177.5 322 137 316 115.5C310 94 250.5 81.5 254 115.5C257.5 149.5 205.5 307 330.5 332.5C455.5 358 532 335 549.5 305.5C567 276 549.5 257 528 266.5C506.5 276 485 385 506.5 399C528 413 606 411.5 608 458M608 458H495.492C493.718 458 492.156 459.168 491.655 460.87L390.51 804.37C389.756 806.932 391.677 809.5 394.348 809.5H635.83C637.687 809.5 639.3 808.222 639.724 806.414L720.347 462.914C720.936 460.404 719.031 458 716.452 458H608Z" stroke="white" stroke-width="2"/>
</svg>
