<svg width="1153" height="5382" viewBox="0 0 1153 5382" fill="none" xmlns="http://www.w3.org/2000/svg">
<g clip-path="url(#clip0_127_3)">
<path d="M773.5 0.5C750.5 99 664 77 639.5 98.5C615 120 579 77 579.5 67C580 57 609.5 47 607 67C604.5 87 576.5 82.5 547.5 81.5C524.3 80.7 511.5 107.833 508 121.5C504 152.5 505.6 137.926 504 152.5C501.999 170.718 488.506 189.017 465 205.5C441.494 221.983 395.809 274.55 400.811 311.853C405.812 349.156 427.818 331.806 431.819 318.793C435.82 305.78 423.817 263.272 400.811 242.452C377.805 221.632 341.796 253.73 300.285 361.301C258.775 468.873 226.267 430.702 202.761 441.98C179.255 453.258 184.256 379.519 193.258 379.519C202.261 379.519 193.258 434.172 172.753 441.98C152.248 449.788 138.744 435.907 106.236 483.621C73.7281 531.334 84.7308 565.167 81.23 573.842C77.7291 582.517 85.231 679.679 93.233 702.234C101.235 724.789 118.739 716.982 132.243 702.234C145.746 687.486 125.741 651.051 106.236 634.568C86.7313 618.085 64.7258 642.375 56.2236 651.051C47.7215 659.726 25.2158 700.499 30.2171 738.669C35.2183 776.84 39.2193 847.976 8.71162 851.446C-21.7961 854.916 47.7215 787.25 52.7227 831.493C57.724 875.737 97.234 901.762 118.739 906.099C140.245 910.437 143.746 869.664 143.746 839.301C143.746 808.938 97.234 864.459 143.746 887.882C190.258 911.305 180.255 959.885 172.753 1011.07C167.06 1049.91 140.627 1038.29 128.869 1093C125.133 1110.38 122.879 1134.45 123.241 1168.96C123.599 1203.15 131.631 1230.75 143.746 1253.58C159.058 1282.44 180.892 1303.67 202 1320.93C234.121 1347.19 264.561 1364.25 267.777 1384.97C270.758 1404.17 277.455 1433.91 283.701 1469.5C288.512 1496.91 293.055 1527.79 295.426 1560C297.208 1584.2 297.763 1609.15 296.284 1633.94C290.283 1734.57 237.77 1761.47 218.765 1744.12C199.76 1726.77 211.763 1665.17 229.767 1695.54C247.772 1725.9 200.76 1743.25 180.255 1779.69C159.75 1816.12 179.755 1882.05 200.76 1903.74C221.765 1925.43 255.774 1862.97 242.271 1849.09C228.767 1835.21 217.764 1874.24 218.765 1910.68C219.765 1947.12 241.27 1993.96 265.777 2015.65C290.283 2037.34 329.227 2026.06 351.798 1993.96C374.37 1961.86 326.792 1923.69 312.788 1962.73C298.785 2001.77 326.792 2026.06 343.296 2037.34C359.8 2048.62 389.308 2019.12 411.813 1993.96C434.319 1968.8 451.824 1965.33 464.327 1962.73C476.83 1960.13 494.834 1975.74 522.841 2026.06C545.247 2066.31 557.183 2131.9 560.351 2159.66C563.185 2166.6 567.153 2201.64 560.351 2286.31C551.849 2392.15 508.838 2312.34 488.333 2404.3C477.417 2453.25 495.417 2473.19 509.959 2497.5C522.733 2518.85 532.84 2543.57 518.34 2594.28C487.333 2702.72 457.325 2622.91 429.818 2688.84C407.812 2741.59 360.967 2764.6 340.295 2769.52C339.295 2770.68 333.194 2777.15 316.789 2793.81C296.284 2814.63 288.282 2853.67 282.781 2884.9C278.38 2909.88 270.278 2934.64 266.777 2943.89C262.442 2956.9 249.172 2988.48 230.768 3010.69C207.762 3038.45 193.258 3040.18 166.251 3047.99C144.646 3054.24 136.577 3045.39 135.244 3040.18C130.742 3034.69 122.84 3020.06 127.242 3005.48C132.743 2987.27 147.747 2988.13 159.75 2988.13C171.753 2988.13 197.259 3024.57 193.258 3101.78C189.257 3178.99 172.253 3166.84 162.25 3211.95C152.248 3257.06 171.253 3276.15 185.756 3291.76C200.26 3307.38 217.871 3298.7 225.266 3291.76C231.182 3286.21 241.735 3268.05 246.272 3259.66C248.772 3251.57 251.373 3234.33 241.771 3230.17C229.768 3224.96 219.265 3257.93 216.264 3276.15C213.263 3294.37 220.765 3314.32 241.771 3335.14C262.776 3355.96 287.282 3331.67 306.287 3341.21C325.292 3350.75 333.294 3375.04 332.293 3414.08C331.293 3453.12 320.791 3454.86 287.282 3500.83C268.694 3526.34 276.577 3551.84 287.282 3596.01C291.924 3615.16 297.097 3637.81 300.872 3665.5C304.086 3689.07 306.287 3716.28 306.287 3748.07C306.287 3774.14 305.2 3798.88 303.369 3822C300.658 3856.22 296.316 3886.88 291.451 3913C283.943 3953.31 275.192 3982.81 269.277 3997.92C264.11 4008.33 252.573 4039.04 247.772 4078.6C241.771 4128.05 240.27 4177.49 247.772 4212.19C255.274 4246.89 277.78 4297.21 306.287 4325.84C329.093 4348.74 364.135 4363.14 378.805 4367.48C405.812 4374.71 466.727 4384.83 494.334 4367.48C528.843 4345.79 546.347 4313.69 556.35 4278.99C566.353 4244.29 570.854 4219.13 569.853 4198.31C568.853 4177.49 566.853 4161.01 545.347 4154.07C523.842 4147.13 516.34 4156.67 513.839 4173.16C511.339 4189.64 506.837 4212.19 494.334 4212.19C481.831 4212.19 443.321 4186.17 463.327 4226.94C483.332 4267.71 492.834 4197.45 490.333 4180.1C487.833 4162.75 456.325 4128.05 436.82 4154.07C417.315 4180.1 410.813 4255.57 429.318 4278.99C447.823 4302.42 515.84 4309.36 521.341 4375.29C526.843 4441.22 531.844 4479.39 506.837 4511.49C481.831 4543.58 467.327 4588.7 448.323 4570.48C429.318 4552.26 438.32 4529.7 453.324 4531.44C468.328 4533.17 492.334 4570.48 506.837 4570.48C521.341 4570.48 546.848 4590.43 565.352 4560.93C583.857 4531.44 587.358 4511.49 612.364 4511.49C637.37 4511.49 657.876 4537.51 677.381 4511.49C696.885 4485.46 708.889 4453.36 699.386 4447.29C689.884 4441.22 677.381 4453.36 677.381 4470.71C677.381 4488.06 672.879 4531.44 699.386 4531.44C725.893 4531.44 713.89 4586.09 733.395 4578.29C752.9 4570.48 783.407 4561.8 791.909 4531.44C800.412 4501.08 805.913 4462.91 791.909 4455.1C777.906 4447.29 763.902 4465.51 760.402 4481.99C757.601 4495.18 751.566 4582.33 748.899 4624.26C745.064 4631.2 739.696 4649.42 748.899 4666.77C760.401 4688.46 787.408 4664.17 802.412 4693.66C817.416 4723.16 803.412 4767.4 791.909 4772.61C780.407 4777.81 768.904 4741.38 780.407 4737.91C791.909 4734.44 820.417 4729.23 832.92 4772.61C842.922 4807.31 841.755 4833.33 839.922 4842.01L807.914 4850.68L714 5334.5L939 4861C940.333 4889.33 946.4 4945.1 960 4941.5C973.6 4937.9 980.667 4927.33 982.5 4922.5L734 5329L1015 4892.5L1151.5 4907L800 5279L998 5076V5156.5L714 5378L719.5 5342.5" stroke="white" stroke-width="2"/>
</g>
<defs>
<clipPath id="clip0_127_3">
<rect width="1153" height="5382" fill="white"/>
</clipPath>
</defs>
</svg>
