<?xml version="1.0" encoding="UTF-8" standalone="no"?>
<svg
   width="1153"
   height="5382"
   viewBox="0 0 1153 5382"
   fill="none"
   version="1.1"
   id="svg19"
   sodipodi:docname="completoReversed.svg"
   inkscape:version="1.1.1 (3bf5ae0d25, 2021-09-20)"
   xmlns:inkscape="http://www.inkscape.org/namespaces/inkscape"
   xmlns:sodipodi="http://sodipodi.sourceforge.net/DTD/sodipodi-0.dtd"
   xmlns="http://www.w3.org/2000/svg"
   xmlns:svg="http://www.w3.org/2000/svg">
  <defs
     id="defs23" />
  <sodipodi:namedview
     id="namedview21"
     pagecolor="#ffffff"
     bordercolor="#666666"
     borderopacity="1.0"
     inkscape:pageshadow="2"
     inkscape:pageopacity="0.0"
     inkscape:pagecheckerboard="0"
     showgrid="false"
     inkscape:zoom="0.15013006"
     inkscape:cx="572.83663"
     inkscape:cy="1798.4406"
     inkscape:window-width="1729"
     inkscape:window-height="1080"
     inkscape:window-x="3301"
     inkscape:window-y="184"
     inkscape:window-maximized="0"
     inkscape:current-layer="svg19" />
  <path
     d="M 773.5,0.5 C 750.5,99 664,77 639.5,98.5 615,120 579,77 579.5,67 c 0.5,-10 30,-20 27.5,0 -2.5,20 -30.5,15.5 -59.5,14.5 -23.2,-0.8 -36,26.333 -39.5,40 -4,31 -2.4,16.426 -4,31 -2.001,18.218 -15.494,36.517 -39,53 -23.506,16.483 -69.191,69.05 -64.189,106.353 5.001,37.303 27.007,19.953 31.008,6.94 4.001,-13.013 -8.002,-55.521 -31.008,-76.341 -23.006,-20.82 -59.015,11.278 -100.526,118.849 -41.51,107.572 -74.018,69.401 -97.524,80.679 -23.506,11.278 -18.505,-62.461 -9.503,-62.461 9.003,0 0,54.653 -20.505,62.461 -20.505,7.808 -34.009,-6.073 -66.517,41.641 -32.5079,47.713 -21.5052,81.546 -25.006,90.221 -3.5009,8.675 4.001,105.837 12.003,128.392 8.002,22.555 25.506,14.748 39.01,0 13.503,-14.748 -6.502,-51.183 -26.007,-67.666 -19.5047,-16.483 -41.5102,7.807 -50.0124,16.483 -8.5021,8.675 -31.0078,49.448 -26.0065,87.618 5.0012,38.171 9.0022,109.307 -21.50548,112.777 -30.50772,3.47 39.00988,-64.196 44.01108,-19.953 5.0013,44.244 44.5113,70.269 66.0163,74.606 21.506,4.338 25.007,-36.435 25.007,-66.798 0,-30.363 -46.512,25.158 0,48.581 46.512,23.423 36.509,72.003 29.007,123.188 -7.502,51.18 -51.013,14.75 -49.512,157.89 1.5,143.14 137.534,170.9 144.536,216.01 7.002,45.11 34.509,148.34 28.507,248.97 -6.001,100.63 -58.514,127.53 -77.519,110.18 -19.005,-17.35 -7.002,-78.95 11.002,-48.58 18.005,30.36 -29.007,47.71 -49.512,84.15 -20.505,36.43 -0.5,102.36 20.505,124.05 21.005,21.69 55.014,-40.77 41.511,-54.65 -13.504,-13.88 -24.507,25.15 -23.506,61.59 1,36.44 22.505,83.28 47.012,104.97 24.506,21.69 63.45,10.41 86.021,-21.69 22.572,-32.1 -25.006,-70.27 -39.01,-31.23 -14.003,39.04 14.004,63.33 30.508,74.61 16.504,11.28 46.012,-18.22 68.517,-43.38 22.506,-25.16 40.011,-28.63 52.514,-31.23 12.503,-2.6 30.507,13.01 58.514,63.33 22.406,40.25 34.342,105.84 37.51,133.6 2.834,6.94 6.802,41.98 0,126.65 -8.502,105.84 -51.513,26.03 -72.018,117.99 -20.505,91.95 61.015,81.54 30.007,189.98 -31.007,108.44 -61.015,28.63 -88.522,94.56 -22.006,52.75 -68.851,75.76 -89.523,80.68 -1,1.16 -7.101,7.63 -23.506,24.29 -20.505,20.82 -28.507,59.86 -34.008,91.09 -4.401,24.98 -12.503,49.74 -16.004,58.99 -4.335,13.01 -17.605,44.59 -36.009,66.8 -23.006,27.76 -37.51,29.49 -64.517,37.3 -21.605,6.25 -29.674,-2.6 -31.007,-7.81 -4.502,-5.49 -12.404,-20.12 -8.002,-34.7 5.501,-18.21 20.505,-17.35 32.508,-17.35 12.003,0 37.509,36.44 33.508,113.65 -4.001,77.21 -21.005,65.06 -31.008,110.17 -10.002,45.11 9.003,64.2 23.506,79.81 14.504,15.62 32.115,6.94 39.51,0 5.916,-5.55 16.469,-23.71 21.006,-32.1 2.5,-8.09 5.101,-25.33 -4.501,-29.49 -12.003,-5.21 -22.506,27.76 -25.507,45.98 -3.001,18.22 4.501,38.17 25.507,58.99 21.005,20.82 45.511,-3.47 64.516,6.07 19.005,9.54 27.007,33.83 26.006,72.87 -1,39.04 -11.502,40.78 -45.011,86.75 -33.508,45.98 19.005,91.96 19.005,247.24 0,124.23 -24.673,218.33 -37.01,249.85 -5.167,10.41 -16.704,41.12 -21.505,80.68 -6.001,49.45 -7.502,98.89 0,133.59 7.502,34.7 30.008,85.02 58.515,113.65 22.806,22.9 57.848,37.3 72.518,41.64 27.007,7.23 87.922,17.35 115.529,0 34.509,-21.69 52.013,-53.79 62.016,-88.49 10.003,-34.7 14.504,-59.86 13.503,-80.68 -1,-20.82 -3,-37.3 -24.506,-44.24 -21.505,-6.94 -29.007,2.6 -31.508,19.09 -2.5,16.48 -7.002,39.03 -19.505,39.03 -12.503,0 -51.013,-26.02 -31.007,14.75 20.005,40.77 29.507,-29.49 27.006,-46.84 -2.5,-17.35 -34.008,-52.05 -53.513,-26.03 -19.505,26.03 -26.007,101.5 -7.502,124.92 18.505,23.43 86.522,30.37 92.023,96.3 5.502,65.93 10.503,104.1 -14.504,136.2 -25.006,32.09 -39.51,77.21 -58.514,58.99 -19.005,-18.22 -10.003,-40.78 5.001,-39.04 15.004,1.73 39.01,39.04 53.513,39.04 14.504,0 40.011,19.95 58.515,-9.55 18.505,-29.49 22.006,-49.44 47.012,-49.44 25.006,0 45.512,26.02 65.017,0 19.504,-26.03 31.508,-58.13 22.005,-64.2 -9.502,-6.07 -22.005,6.07 -22.005,23.42 0,17.35 -4.502,60.73 22.005,60.73 26.507,0 14.504,54.65 34.009,46.85 19.505,-7.81 50.012,-16.49 58.514,-46.85 8.503,-30.36 14.004,-68.53 0,-76.34 -14.003,-7.81 -28.007,10.41 -31.507,26.89 -2.801,13.19 -8.836,100.34 -11.503,142.27 -3.835,6.94 -9.203,25.16 0,42.51 11.502,21.69 38.509,-2.6 53.513,26.89 15.004,29.5 1,73.74 -10.503,78.95 -11.502,5.2 -23.005,-31.23 -11.502,-34.7 11.502,-3.47 40.01,-8.68 52.513,34.7 10.002,34.7 8.835,60.72 7.002,69.4 l -32.008,8.67 -94.524,484.08 151.538,-337.47 68.517,-137.93 c 4.335,1.45 11.703,6.94 6.502,17.35 m 6.001,49.45 c 1.201,18.74 10.17,17.64 14.504,14.75 l -234.559,393.85 285.567,-446.77 138.54,14.75 -147.04,162.22 -211.051,222.08 202.552,-205.6 v 65.07 L 707.888,5379 l 10.003,-44.24 c 71.851,-148.35 216.855,-447.64 222.056,-458.05 1.5,8.68 4.801,30.71 6.001,49.45 z"
     stroke="#ffffff"
     stroke-width="2"
     id="path17"
     sodipodi:nodetypes="cssssccscsscssscssccccsscssccscsccscccccscsccccccccccccccsscccccscsccscsscccscsssccccccscscscsssccssccccssccccccscccccccccccs" />
</svg>
