<svg width="21" height="24" viewBox="0 0 21 24" fill="none" xmlns="http://www.w3.org/2000/svg">
<path d="M1 20V4C1 2.34315 2.34315 1 4 1H4.1459C5.28221 1 6.321 1.64201 6.82918 2.65836L9.60557 8.21115C9.9741 8.94819 11.0259 8.9482 11.3944 8.21115L14.1708 2.65836C14.679 1.64201 15.7178 1 16.8541 1H17C18.6569 1 20 2.34315 20 4V20C20 21.6569 18.6569 23 17 23H16.7063C15.2117 23 14 21.7883 14 20.2937V14.1528C14 13.2343 12.8005 12.885 12.3073 13.6599C11.4655 14.9827 9.53448 14.9827 8.69267 13.6599C8.19954 12.885 7 13.2343 7 14.1528V20.2937C7 21.7883 5.78834 23 4.29368 23H4C2.34315 23 1 21.6569 1 20Z" stroke="white" stroke-width="2"/>
<path d="M1 23V1H6L10.5 11L15 1H20V23H14V11L10.5 16L7 11V23H1Z" stroke="black"/>
</svg>
