<svg width="288" height="428" viewBox="0 0 288 428" fill="none" xmlns="http://www.w3.org/2000/svg">
<path d="M287 352.532C258.222 378.359 193.906 416.717 166.864 363.529C139.822 310.341 173.716 295.544 180.568 319.039C183.309 334.702 184.405 375.227 166.864 412.018C144.938 458.008 28 402.521 28 184.069C28 9.30752 28 50.5984 28 93.089" stroke="white" stroke-width="2"/>
<path d="M183.023 181.5C180.645 176.433 177.826 164.273 185.571 156.167C193.316 148.06 204.084 144.344 208.5 143.5" stroke="white" stroke-width="2"/>
<path d="M28.9665 2.81498L2.83879 31.8458C1.29884 33.5568 1.51731 36.2114 3.3163 37.6476L13 45.3787L182.721 180.878C183.233 181.286 183.836 181.563 184.48 181.684L223.79 189.054C227.001 189.656 229.54 186.363 228.142 183.41L209.392 143.828C209.134 143.283 208.756 142.804 208.287 142.425L34.4492 2.37594C32.795 1.04326 30.3876 1.23604 28.9665 2.81498Z" stroke="white" stroke-width="2"/>
<path d="M206 185C207.2 179.4 215.833 172 220 169" stroke="white" stroke-width="2"/>
</svg>
