<svg width="556" height="387" viewBox="0 0 556 387" fill="none" xmlns="http://www.w3.org/2000/svg">
<path d="M67.232 127.512C55.9441 163.876 48.1992 236.818 107.523 237.679C166.847 238.541 166.037 202.432 141.961 206.521C126.674 210.851 89.6298 227.315 63.7458 258.53C31.3907 297.55 130.37 376.321 327.593 282.384C485.371 207.235 448.093 224.99 409.732 243.262" stroke="white" stroke-width="2"/>
<path d="M378.079 341.5C380.39 336.433 383.131 324.273 375.602 316.167C368.073 308.06 357.605 304.344 353.312 303.5" stroke="white" stroke-width="2"/>
<path d="M527.942 162.931L553.283 191.894C554.769 193.594 554.556 196.186 552.811 197.619L543.362 205.379L378.399 340.856C377.885 341.279 377.272 341.566 376.618 341.692L338.602 349.025C335.404 349.641 332.849 346.382 334.211 343.424L352.445 303.826C352.696 303.282 353.065 302.802 353.526 302.42L522.38 162.485C524.048 161.102 526.515 161.3 527.942 162.931Z" stroke="white" stroke-width="2"/>
<path d="M355.742 345C354.576 339.4 346.183 332 342.132 329" stroke="white" stroke-width="2"/>
</svg>
