<svg width="392" height="345" viewBox="0 0 392 345" fill="none" xmlns="http://www.w3.org/2000/svg">
<path d="M223.875 1C211.397 26.8623 196.922 84.2639 238.85 106.972C280.777 129.681 256.319 175.476 238.85 195.535C222.877 210.295 174.86 194.475 180.45 229.597C185.322 260.204 193.111 271.094 195.034 275.392M195.473 276.906C195.473 276.517 195.317 276.026 195.034 275.392M195.034 275.392C196.325 278.799 198.52 286.519 196.971 290.153C195.034 294.694 191.979 296.208 191.48 300.75C191.081 304.383 193.976 314.627 195.473 319.295" stroke="white" stroke-width="2"/>
<path d="M196.527 322.581L385.424 241.634C388.064 240.503 391 242.439 391 245.31V259.206C391 260.818 390.033 262.272 388.546 262.895L199.649 342.082C197.014 343.187 194.103 341.251 194.103 338.393V326.257C194.103 324.657 195.057 323.211 196.527 322.581Z" stroke="white" stroke-width="2"/>
<path d="M191.924 322.093L6.72253 233.721C4.06789 232.454 0.999939 234.39 0.999939 237.331V252.903C0.999939 254.459 1.90207 255.874 3.31271 256.53L187.141 342.051C189.626 343.207 192.511 341.578 192.805 338.854L194.178 326.132C194.36 324.444 193.457 322.824 191.924 322.093Z" stroke="white" stroke-width="2"/>
<path d="M374.687 223.042L195.621 322.702L356.856 213.26" stroke="white" stroke-width="2"/>
<path d="M31.3502 223.042L196 322.702L47.7454 213.26" stroke="white" stroke-width="2"/>
<path d="M195.242 321.48L331.817 206.228M195.242 321.48L313.607 197.974M195.242 321.48L72.3232 203.171M195.242 321.48L96.9828 194" stroke="white" stroke-width="2"/>
</svg>
