<svg width="2343" height="316" viewBox="0 0 2343 316" fill="none" xmlns="http://www.w3.org/2000/svg">
<path d="M1.00002 160C3.00002 66.4 10.1667 15.6667 49.0001 0H2294C2332.83 0 2346.4 59.2 2342 160C2337.6 260.8 2329.17 294.333 2294 315.5H49.0001C8.50006 304 -0.999981 253.6 1.00002 160Z" fill="white"/>
<path d="M690.112 183.784H696.592V193H665.632V183.784H672.112L672.832 183.064V157.432C672.832 152.152 672.112 148.408 670.672 146.2C669.232 143.896 666.928 142.744 663.76 142.744C660.016 142.744 655.984 143.32 651.664 144.472L651.52 144.184L651.808 148.216V183.064L652.528 183.784H659.008V193H628.048V183.784H634.528L635.248 183.064V157.432C635.248 152.056 634.48 148.264 632.944 146.056C631.504 143.848 629.2 142.744 626.032 142.744C622.288 142.744 618.256 143.32 613.936 144.472V183.064L614.656 183.784H621.136V193H590.176V183.784H596.656L597.376 183.064V148.072L588.16 142.456V140.584L609.76 129.496L611.632 130.504L613.36 139C617.872 136.024 621.712 133.864 624.88 132.52C628.048 131.08 631.312 130.36 634.672 130.36C638.512 130.36 641.728 131.176 644.32 132.808C647.008 134.44 648.976 136.696 650.224 139.576C656.368 135.544 660.928 133 663.904 131.944C666.88 130.888 669.76 130.36 672.544 130.36C677.92 130.36 682.048 131.944 684.928 135.112C687.904 138.28 689.392 142.552 689.392 147.928V183.064L690.112 183.784ZM752.48 183.784H758.96V193H735.2V187.96C732.416 189.88 729.44 191.464 726.272 192.712C723.2 193.96 720.224 194.584 717.344 194.584C713.504 194.584 710.144 193.432 707.264 191.128C704.48 188.728 703.088 185.128 703.088 180.328C703.088 173.704 705.872 168.712 711.44 165.352C717.008 161.896 724.928 159.64 735.2 158.584V155.992C735.2 151.096 734.24 147.4 732.32 144.904C730.496 142.408 727.568 141.16 723.536 141.16C719.024 141.16 713.984 142.936 708.416 146.488L705.68 141.016C712.784 133.912 721.088 130.36 730.592 130.36C737.984 130.36 743.36 132.424 746.72 136.552C750.08 140.68 751.76 146.824 751.76 154.984V183.064L752.48 183.784ZM727.424 184.216C729.344 184.216 731.936 183.784 735.2 182.92V165.64C729.728 166.12 725.696 167.224 723.104 168.952C720.608 170.68 719.312 173.128 719.216 176.296C719.12 178.888 719.84 180.856 721.376 182.2C722.912 183.544 724.928 184.216 727.424 184.216ZM825.865 183.784H832.345V193H808.585V185.512C804.457 188.584 800.953 190.84 798.073 192.28C795.289 193.72 792.265 194.44 789.001 194.44C786.505 194.44 783.961 193.96 781.369 193C778.777 191.944 776.377 190.216 774.169 187.816C772.057 185.32 770.281 182.152 768.841 178.312C767.401 174.472 766.681 170.008 766.681 164.92C766.681 160.12 767.449 155.608 768.985 151.384C770.521 147.064 772.681 143.368 775.465 140.296C778.249 137.128 781.561 134.68 785.401 132.952C789.241 131.224 793.369 130.36 797.785 130.36C801.817 130.36 805.417 131.08 808.585 132.52V108.328L799.369 102.568V100.84L823.273 89.32L825.145 90.328V183.064L825.865 183.784ZM799.513 182.056C802.297 182.056 805.321 181.624 808.585 180.76V146.488C805.705 141.496 801.961 139 797.353 139C793.225 139 790.009 140.872 787.705 144.616C785.401 148.36 784.249 153.592 784.249 160.312C784.249 167.416 785.545 172.84 788.137 176.584C790.825 180.232 794.617 182.056 799.513 182.056ZM889.449 183.784H895.929V193H872.169V187.96C869.385 189.88 866.409 191.464 863.241 192.712C860.169 193.96 857.193 194.584 854.312 194.584C850.473 194.584 847.113 193.432 844.233 191.128C841.449 188.728 840.057 185.128 840.057 180.328C840.057 173.704 842.841 168.712 848.409 165.352C853.977 161.896 861.897 159.64 872.169 158.584V155.992C872.169 151.096 871.209 147.4 869.289 144.904C867.465 142.408 864.537 141.16 860.505 141.16C855.993 141.16 850.953 142.936 845.385 146.488L842.649 141.016C849.753 133.912 858.057 130.36 867.561 130.36C874.953 130.36 880.329 132.424 883.689 136.552C887.049 140.68 888.729 146.824 888.729 154.984V183.064L889.449 183.784ZM864.393 184.216C866.313 184.216 868.905 183.784 872.169 182.92V165.64C866.697 166.12 862.665 167.224 860.073 168.952C857.577 170.68 856.281 173.128 856.185 176.296C856.089 178.888 856.809 180.856 858.345 182.2C859.881 183.544 861.897 184.216 864.393 184.216ZM902.353 193V183.784H908.833L909.553 183.064V108.328L900.337 102.568V100.84L924.097 89.32L926.113 90.328V183.064L926.833 183.784H933.313V193H902.353ZM978.05 184.648C982.274 184.648 986.834 183.448 991.73 181.048L994.466 186.088C987.266 191.656 979.538 194.44 971.282 194.44C967.058 194.44 963.074 193.72 959.33 192.28C955.682 190.84 952.466 188.776 949.682 186.088C946.898 183.304 944.738 179.992 943.202 176.152C941.666 172.216 940.898 167.992 940.898 163.48C940.898 160.12 941.378 156.616 942.338 152.968C943.394 149.224 945.266 145.48 947.954 141.736C950.738 137.992 954.242 135.16 958.466 133.24C962.69 131.32 966.962 130.36 971.282 130.36C978.482 130.36 984.242 132.616 988.562 137.128C992.882 141.544 995.042 147.352 995.042 154.552C995.042 157.048 994.802 159.64 994.322 162.328H958.61C958.802 165.4 959.474 168.76 960.626 172.408C961.874 175.96 963.986 178.888 966.962 181.192C970.034 183.496 973.73 184.648 978.05 184.648ZM969.266 138.712C966.098 138.712 963.602 140.104 961.778 142.888C959.954 145.672 958.898 149.656 958.61 154.84H979.058C978.962 152.056 978.626 149.368 978.05 146.776C977.474 144.088 976.418 142.072 974.882 140.728C973.346 139.384 971.474 138.712 969.266 138.712ZM1066.42 183.928H1072.9V193H1041.94V183.784H1048.42L1049.14 183.064V157.432C1049.14 151.864 1048.23 148.024 1046.4 145.912C1044.67 143.8 1041.75 142.744 1037.62 142.744C1034.74 142.744 1031.04 143.32 1026.53 144.472V183.064L1027.25 183.784H1033.73V193H1002.77V183.784H1009.25L1009.97 183.064V148.072L1000.75 142.456V140.584L1022.35 129.496L1024.23 130.504L1025.95 139C1030.47 136.024 1034.4 133.864 1037.76 132.52C1041.12 131.08 1044.63 130.36 1048.27 130.36C1053.46 130.36 1057.63 131.752 1060.8 134.536C1064.07 137.224 1065.7 141.448 1065.7 147.208V183.064L1066.42 183.928ZM1128.79 183.784H1135.27V193H1111.51V187.96C1108.73 189.88 1105.75 191.464 1102.58 192.712C1099.51 193.96 1096.54 194.584 1093.66 194.584C1089.82 194.584 1086.46 193.432 1083.58 191.128C1080.79 188.728 1079.4 185.128 1079.4 180.328C1079.4 173.704 1082.18 168.712 1087.75 165.352C1093.32 161.896 1101.24 159.64 1111.51 158.584V155.992C1111.51 151.096 1110.55 147.4 1108.63 144.904C1106.81 142.408 1103.88 141.16 1099.85 141.16C1095.34 141.16 1090.3 142.936 1084.73 146.488L1081.99 141.016C1089.1 133.912 1097.4 130.36 1106.9 130.36C1114.3 130.36 1119.67 132.424 1123.03 136.552C1126.39 140.68 1128.07 146.824 1128.07 154.984V183.064L1128.79 183.784ZM1103.74 184.216C1105.66 184.216 1108.25 183.784 1111.51 182.92V165.64C1106.04 166.12 1102.01 167.224 1099.42 168.952C1096.92 170.68 1095.62 173.128 1095.53 176.296C1095.43 178.888 1096.15 180.856 1097.69 182.2C1099.22 183.544 1101.24 184.216 1103.74 184.216ZM1246.96 190.696H1253.87V193H1212.83L1185.33 145.48V190.696H1197.57V193H1142.13V190.696H1153.65V97.096L1140.83 89.32H1195.12C1209.43 89.32 1220.42 91.48 1228.1 95.8C1235.87 100.12 1239.76 106.552 1239.76 115.096C1239.76 128.92 1231.94 137.944 1216.29 142.168L1246.96 190.696ZM1189.94 91.624H1185.33V142.744C1192.82 142.36 1198.24 140.344 1201.6 136.696C1204.96 133.048 1206.64 125.944 1206.64 115.384C1206.64 107.992 1205.2 102.184 1202.32 97.96C1199.54 93.736 1195.41 91.624 1189.94 91.624ZM1290.74 194.44C1285.65 194.44 1280.66 193.576 1275.76 191.848C1270.96 190.024 1266.69 187.432 1262.95 184.072C1259.3 180.712 1256.37 176.68 1254.16 171.976C1252.05 167.272 1250.99 162.136 1250.99 156.568C1250.99 151.576 1251.95 146.824 1253.87 142.312C1255.79 137.704 1258.53 133.72 1262.08 130.36C1265.63 127 1269.86 124.36 1274.75 122.44C1279.65 120.52 1284.93 119.56 1290.59 119.56C1296.45 119.56 1301.87 120.424 1306.87 122.152C1311.95 123.88 1316.32 126.376 1319.97 129.64C1323.62 132.904 1326.45 136.84 1328.47 141.448C1330.48 146.056 1331.49 151.096 1331.49 156.568C1331.49 161.848 1330.63 166.792 1328.9 171.4C1327.17 176.008 1324.58 180.04 1321.12 183.496C1317.76 186.952 1313.49 189.64 1308.31 191.56C1303.12 193.48 1297.27 194.44 1290.74 194.44ZM1306.87 189.256C1310.8 189.256 1312.77 186.808 1312.77 181.912C1312.77 178.936 1311.43 174.328 1308.74 168.088C1306.15 161.752 1302.83 155.224 1298.8 148.504C1294.87 141.784 1290.79 136.168 1286.56 131.656C1282.43 127.048 1278.88 124.744 1275.91 124.744C1274.08 124.744 1272.64 125.368 1271.59 126.616C1270.63 127.864 1270.15 129.592 1270.15 131.8C1270.15 135.16 1271.49 140.056 1274.18 146.488C1276.87 152.92 1280.23 159.448 1284.26 166.072C1288.29 172.6 1292.37 178.12 1296.5 182.632C1300.63 187.048 1304.08 189.256 1306.87 189.256ZM1421.04 226.696H1428.24V229H1380.72V226.696H1392.24V181.768C1388.4 185.704 1384.28 188.824 1379.86 191.128C1375.54 193.336 1371.32 194.44 1367.19 194.44C1359.7 194.44 1353.56 191.464 1348.76 185.512C1343.96 179.56 1341.56 171.208 1341.56 160.456C1341.56 147.4 1345.3 137.32 1352.79 130.216C1360.28 123.112 1371.17 119.56 1385.48 119.56C1390.66 119.56 1396.61 120.088 1403.33 121.144C1410.05 122.104 1415.96 123.4 1421.04 125.032V226.696ZM1386.2 181.192C1388.02 181.192 1390.04 180.712 1392.24 179.752V124.6C1390.23 123.16 1387.88 122.44 1385.19 122.44C1381.25 122.44 1378.13 124.936 1375.83 129.928C1373.52 134.824 1372.37 142.264 1372.37 152.248C1372.37 161.944 1373.48 169.192 1375.68 173.992C1377.99 178.792 1381.49 181.192 1386.2 181.192ZM1512.39 190.696H1519.59V193H1483.59V181.912C1476.3 187.192 1470.87 190.648 1467.32 192.28C1463.77 193.816 1460.6 194.584 1457.82 194.584C1451.38 194.584 1446.68 192.616 1443.7 188.68C1440.73 184.744 1439.24 178.504 1439.24 169.96V139L1431.03 131.944L1468.04 118.984V164.2C1468.04 170.536 1468.57 174.952 1469.62 177.448C1470.68 179.848 1472.89 181.048 1476.25 181.048C1478.46 181.048 1480.9 180.568 1483.59 179.608V138.28L1475.38 131.224L1512.39 118.264V190.696ZM1592.43 179.896L1592.57 180.04C1589.5 184.648 1585.52 188.2 1580.62 190.696C1575.73 193.192 1570.01 194.44 1563.49 194.44C1558.49 194.44 1553.74 193.576 1549.23 191.848C1544.72 190.12 1540.73 187.672 1537.28 184.504C1533.92 181.336 1531.28 177.496 1529.36 172.984C1527.44 168.376 1526.48 163.384 1526.48 158.008C1526.48 152.824 1527.34 147.88 1529.07 143.176C1530.8 138.472 1533.25 134.392 1536.41 130.936C1539.68 127.384 1543.61 124.6 1548.22 122.584C1552.93 120.568 1558.06 119.56 1563.63 119.56C1570.35 119.56 1575.82 121.336 1580.05 124.888C1584.37 128.344 1586.53 132.712 1586.53 137.992C1586.53 144.04 1584.22 149.608 1579.61 154.696C1575.1 159.688 1568.57 163.768 1560.03 166.936C1564.16 170.968 1568.72 174.232 1573.71 176.728C1578.8 179.128 1583.65 180.328 1588.25 180.328C1589.79 180.328 1591.18 180.184 1592.43 179.896ZM1550.24 124.6C1548.41 124.6 1546.97 125.368 1545.92 126.904C1544.86 128.44 1544.33 130.504 1544.33 133.096C1544.33 138.76 1545.68 144.52 1548.37 150.376C1551.15 156.232 1554.75 161.464 1559.17 166.072C1562.91 161.272 1564.78 155.176 1564.78 147.784C1564.78 143.464 1563.87 139.48 1562.05 135.832C1560.32 132.088 1558.4 129.304 1556.29 127.48C1554.17 125.56 1552.16 124.6 1550.24 124.6Z" fill="black"/>
<path d="M2174.88 201.735L2174.83 195.496L2181.26 195.438L2181.5 222.7L2175.07 222.758L2175.02 216.519L2174.53 216.043L2155.55 230.135L2174.79 244.266L2175.26 243.686L2175.21 237.446L2181.64 237.388L2181.83 258.603L2175.4 258.661L2175.34 252.421L2174.76 251.85L2150.88 233.633L2126.56 251.613L2120.88 259.824L2119.44 259.837L2119.16 229.406L2120.6 229.393L2126.44 237.981L2142.46 226.028L2126.23 214.462L2120.55 223.154L2119.11 223.167L2118.88 198.304L2120.32 198.291L2126.16 206.878L2147.13 222.53L2174.31 202.22L2174.88 201.735ZM2174.29 135.457L2174.23 129.217L2180.66 129.159L2180.91 156.422L2174.48 156.48L2174.42 150.24L2173.94 149.764L2154.96 163.856L2174.19 177.987L2174.66 177.407L2174.61 171.167L2181.04 171.109L2181.23 192.324L2174.8 192.382L2174.74 186.143L2174.16 185.572L2150.28 167.354L2125.97 185.334L2120.28 193.546L2118.84 193.559L2118.57 163.128L2120.01 163.115L2125.84 171.703L2141.86 159.75L2125.63 148.184L2119.95 156.875L2118.51 156.888L2118.29 132.025L2119.73 132.012L2125.56 140.6L2146.54 156.252L2173.71 135.942L2174.29 135.457ZM2180.61 123.358L2173.89 123.419L2173.83 116.219L2173.34 115.743L2125.34 116.176L2119.66 124.867L2118.22 124.88L2117.96 95.6014L2119.4 95.5884L2125.23 104.176L2173.23 103.744L2173.71 103.259L2173.64 96.0596L2180.36 95.9991L2180.61 123.358ZM2180.29 87.3594L2173.57 87.42L2173.5 80.2203L2173.02 79.7446L2125.02 80.1771L2119.34 88.8687L2117.9 88.8817L2117.63 59.6029L2119.07 59.5899L2124.91 68.1776L2172.91 67.7451L2173.38 67.2608L2173.32 60.0611L2180.04 60.0005L2180.29 87.3594Z" fill="black"/>
</svg>
