<svg width="392" height="529" viewBox="0 0 392 529" fill="none" xmlns="http://www.w3.org/2000/svg">
<path d="M223.875 1C211.397 26.8623 196.922 84.2639 238.85 106.972C280.777 129.681 256.319 175.476 238.85 195.535C222.877 210.295 174.86 194.475 180.45 229.597C185.322 260.204 193.111 271.094 195.034 275.392M195.473 276.906C195.473 276.517 195.317 276.026 195.034 275.392M195.034 275.392C196.325 278.799 198.52 286.519 196.971 290.153C195.034 294.694 191.979 296.208 191.48 300.75C191.081 304.383 193.976 314.627 195.473 319.295" stroke="white" stroke-width="2"/>
<path d="M196.528 321.363L385.424 240.417C388.064 239.286 391 241.222 391 244.093V257.989C391 259.601 390.033 261.055 388.546 261.678L199.65 340.865C197.014 341.97 194.103 340.034 194.103 337.176V325.04C194.103 323.44 195.057 321.994 196.528 321.363Z" stroke="white" stroke-width="2"/>
<path d="M191.924 320.876L6.7226 232.504C4.06795 231.237 1 233.173 1 236.114V251.686C1 253.242 1.90213 254.657 3.31277 255.313L187.141 340.834C189.626 341.99 192.512 340.361 192.806 337.637L194.178 324.915C194.361 323.227 193.457 321.607 191.924 320.876Z" stroke="white" stroke-width="2"/>
<path d="M374.687 221.825L195.621 321.485L356.856 212.042" stroke="white" stroke-width="2"/>
<path d="M31.3502 221.825L196 321.485L47.7454 212.042" stroke="white" stroke-width="2"/>
<path d="M195.241 320.262L331.817 205.011M195.241 320.262L313.607 196.757M195.241 320.262L72.323 201.954M195.241 320.262L96.9825 192.783" stroke="white" stroke-width="2"/>
<path d="M194 338.635C189.696 352.802 183.226 384.983 191.781 400.366C202.475 419.594 234.753 407.138 253.328 422.776C271.903 438.415 281.247 475.695 270.159 485.465C259.07 495.235 240.981 490.247 257.769 477.651C274.557 465.055 302.181 471.421 295.048 487.609C289.342 500.56 277.305 519.933 272 528" stroke="white" stroke-width="2"/>
</svg>
