<svg width="300" height="298" viewBox="0 0 300 298" fill="none" xmlns="http://www.w3.org/2000/svg">
<path d="M298.729 19.2919C289.395 7.12524 253.729 -18.7081 221.729 27.2919C214.123 38.2245 218.129 67.0919 227.729 68.2919C239.729 69.7919 241.729 49.7919 221.729 40.7919C193.677 28.1686 183.729 36.2919 173.729 47.2919C166.352 55.406 156.229 73.7919 143.229 81.2919C130.229 88.7919 99.2287 73.7919 90.2287 62.2919C81.2287 50.7919 103.229 41.2919 115.229 73.7919C127.229 106.292 121.729 152.792 115.229 166.792C111.351 175.144 111.062 220.292 108.729 241.292C107.395 258.625 110.09 289.153 114.729 293.792C121.729 300.792 131.151 294.954 129.729 288.792C128.229 282.292 113.729 276.292 108.729 273.792C103.729 271.292 34.3526 234.416 23.7287 228.792C15.2287 224.292 6.72872 217.792 2.2287 209.792C-1.99006 202.292 5.7287 192.792 9.22869 192.792C12.2287 192.792 16.7742 195.792 19.7287 202.292C23.3651 210.292 21.2287 203.792 27.7287 220.292C34.1159 236.506 38.7287 263.292 50.7287 267.292C57.562 269.292 67.6287 269.692 79.2287 263.292C90.8287 256.892 89.062 245.625 85.7287 240.292C81.062 233.792 69.7287 228.792 61.7287 234.792C53.7287 240.792 59.8954 252.292 61.7287 257.792" stroke="white" stroke-width="2"/>
</svg>
