<svg width="315" height="358" viewBox="0 0 315 358" fill="none" xmlns="http://www.w3.org/2000/svg">
<path d="M313.771 0.161133C316.271 20.1613 249 39 217 85C209.395 95.9325 218.129 126.639 227.729 127.839C239.729 129.339 241.729 109.339 221.729 100.339C193.677 87.7152 183.729 95.8386 173.729 106.839C166.352 114.953 156.229 133.338 143.229 140.838C130.229 148.338 99.2287 133.339 90.2287 121.839C81.2287 110.339 103.229 100.838 115.229 133.338C127.229 165.838 121.729 212.338 115.229 226.338C111.351 234.691 111.062 279.838 108.729 300.838C107.395 318.172 110.09 348.7 114.729 353.338C121.729 360.338 131.151 354.501 129.729 348.338C128.229 341.838 113.729 335.838 108.729 333.338C103.729 330.838 34.3526 293.963 23.7287 288.338C15.2287 283.838 6.72872 277.338 2.2287 269.338C-1.99006 261.838 5.7287 252.338 9.22869 252.338C12.2287 252.338 16.7742 255.339 19.7287 261.839C23.3651 269.839 21.2287 263.338 27.7287 279.838C34.1159 296.052 38.7287 322.838 50.7287 326.838C57.562 328.838 67.6287 329.238 79.2287 322.838C90.8287 316.438 89.062 305.172 85.7287 299.839C81.062 293.339 69.7287 288.338 61.7287 294.338C53.7287 300.338 59.8954 311.838 61.7287 317.338" stroke="white" stroke-width="2"/>
</svg>
