<?xml version="1.0" encoding="UTF-8" standalone="no"?>
<svg
   width="1151"
   height="5381"
   viewBox="0 0 1151 5381"
   fill="none"
   version="1.1"
   id="svg438"
   sodipodi:docname="novoPathInvertido.svg"
   inkscape:version="1.1.1 (3bf5ae0d25, 2021-09-20)"
   xmlns:inkscape="http://www.inkscape.org/namespaces/inkscape"
   xmlns:sodipodi="http://sodipodi.sourceforge.net/DTD/sodipodi-0.dtd"
   xmlns="http://www.w3.org/2000/svg"
   xmlns:svg="http://www.w3.org/2000/svg">
  <defs
     id="defs442" />
  <sodipodi:namedview
     id="namedview440"
     pagecolor="#ffffff"
     bordercolor="#666666"
     borderopacity="1.0"
     inkscape:pageshadow="2"
     inkscape:pageopacity="0.0"
     inkscape:pagecheckerboard="0"
     showgrid="false"
     inkscape:zoom="0.15015796"
     inkscape:cx="576.06002"
     inkscape:cy="1704.8713"
     inkscape:window-width="1920"
     inkscape:window-height="1046"
     inkscape:window-x="-11"
     inkscape:window-y="-11"
     inkscape:window-maximized="1"
     inkscape:current-layer="svg438" />
  <path
     d="m 716.5,5341 v 38.5 l 282,-220.5 v -81.5 L 799,5281.5 1149.5,4903 1014,4891 732,5333 985.5,4916.5 c -2.167,4 -10.1,13.6 -24.5,20 -14.4,6.4 -22,-44.67 -24,-71 l -220.5,462 92,-478 31,-8 c 4,-4 1,-19 3,-28.5 2,-9.5 -2,-13.5 -7,-40.5 -5,-27 -20,-33.5 -34,-39 -14,-5.5 -19,2 -24.5,5.5 -5.5,3.5 -2.5,34.5 16.5,38.5 19,4 14,-34.5 17.5,-54 3.5,-19.5 -6.5,-36.5 -17.5,-44 -11,-7.5 -37,6.5 -47.5,-5 -10.5,-11.5 6,-38.5 16,-39 10,-0.5 23.5,16.5 -12.5,17 -28.8,0.4 -10.333,-35.5 2.5,-53.5 1.333,-18.5 4.5,-62.9 6.5,-92.5 2.5,-37 7.5,-48 20.5,-53 13,-5 19.5,5 24,18 4.5,13 -8.5,59 -14.5,72 -6,13 -27,25.5 -47,32 -20,6.5 -9,7.5 -17,-6.5 -8,-14 -5.5,-26.5 -12.5,-35 -7,-8.5 -9.5,4 -23,-7.5 -13.5,-11.5 -10.5,-36 -10,-55 0.5,-19 4.5,-27.5 17.5,-27 13,0.5 5.5,14 0,35 -5.5,21 -21.5,34.5 -28.5,40 -7,5.5 -16.5,7 -36,-5.5 -15.6,-10 -33.5,-0.5 -40.5,5.5 -6.833,8.33 -21.3,28.2 -24.5,41 -4,16 -22.5,19 -32.5,15 -10,-4 -20,-6.5 -32.5,-6.5 -12.5,0 -29,-24.5 -33,-31 -4,-6.5 -13.5,-10.5 -23.5,-8.5 -10,2 -11,23.5 0,39.5 11,16 23,3 27.5,-3.5 4.5,-6.5 16.5,-26.5 29,-46 12.5,-19.5 24.5,-40.5 25,-61 0.5,-20.5 0,-42.5 -3.5,-75 -3.5,-32.5 -5,-23.5 -12.5,-44 -7.5,-20.5 -27,-28 -34.5,-33.5 -7.5,-5.5 -39.5,-18 -48.5,-29.5 -9,-11.5 -9.5,-40.5 -8.5,-67 1,-26.5 1,-20.5 11.5,-44 10.5,-23.5 22,-22 31,-20.5 9,1.5 29.5,15.5 30,44 0.5,28.5 -7.5,39.5 -8,42.5 -0.5,3 -6.5,11.5 -16,-3 -9.5,-14.5 -6,-22 0,-23 6,-1 21.5,9.5 36.5,4 15,-5.5 13,-44.5 18,-52.5 5,-8 8,-9 32.5,0 24.5,9 16,63 15,74.5 -1,11.5 -15,62.5 -30,94 -15,31.5 -46,41.5 -58,49.5 -12,8 -67.5,3 -83,0 -15.5,-3 -60,-21.5 -88,-45 -22.4,-18.8 -36.667,-45.17 -41,-56 -7.833,-15.5 -24,-55.2 -26,-90 -2.5,-43.5 2.5,-70.5 5.5,-112.5 3,-42 31.5,-106 36,-120 4.5,-14 12,-73 15.5,-96 3.5,-23 4.5,-50.5 4.5,-64 0,-13.5 1,-82.5 0,-101 -0.8,-14.8 -7,-52.17 -10,-69 -5.5,-21.33 -16.9,-68.5 -18.5,-86.5 -2,-22.5 6.5,-31.5 24,-51 17.5,-19.5 27,-36.5 33.5,-61 6.5,-24.5 -5.5,-56.5 -6.5,-63.5 -1,-7 -18,-25 -38,-20 -20,5 -37.5,3 -46.5,-5 -9,-8 -23.5,-24 -26,-47 -2.5,-23 3,-23.5 9,-42 6,-18.5 13,-16.5 21.5,-14 8.5,2.5 0.5,29 -4.5,39.5 -5,10.5 -16.5,26 -30.5,31.5 -14,5.5 -28,-9.5 -41,-26.5 -13,-17 -13,-37 -10,-63 3,-26 23,-50 26,-60.5 3,-10.5 8,-39.5 8,-68 0,-28.5 -4.5,-35 -8,-60 -3.5,-25 -15.5,-30.5 -22,-36.5 -6.5,-6 -29,-0.5 -38,10.5 -9,11 0,31.5 9,46.5 9,15 36.5,5.5 51,0 14.5,-5.5 37.5,-23.5 46,-35 8.5,-11.5 21,-30 32,-57.5 11,-27.5 14.5,-50 21,-83 6.5,-33 18,-60 25,-70 7,-10 22.5,-27.5 39.5,-34.5 17,-7 36.5,-19 54,-35 17.5,-16 25.5,-40 27.5,-47 2,-7 17.5,-28.5 31,-25.5 13.5,3 25.5,-7 36.5,-16.5 11,-9.5 10,-25 20.5,-56.5 10.5,-31.5 3.5,-49 0,-67.5 -3.5,-18.5 -15,-24.5 -25.5,-43.5 -10.5,-19 -10,-33.5 -8,-56.5 2,-23 10.5,-41 18.5,-54.5 8,-13.5 6.5,-5.5 25.5,-13.5 19,-8 19,-16 24.5,-29.5 4.4,-10.8 5.833,-33.17 6,-43 1,-10.33 3,-37.2 3,-62 0,-31 -2,-46 -3,-62.5 -1,-16.5 -11.5,-56 -14.5,-71.5 -3,-15.5 -14.5,-41.5 -17.5,-48 -3,-6.5 -23,-36.5 -27.5,-44.5 -4.5,-8 -19,-22 -29.5,-26 -10.5,-4 -27.5,4 -43.5,15 -12.8,8.8 -29,28 -35.5,36.5 -9.5,9.67 -31.7,28.3 -44.5,25.5 -16,-3.5 -33,-32 -36.5,-39.5 -3.5,-7.5 -6,-30 3.5,-42.5 9.5,-12.5 18,-9.5 33,-5 15,4.5 12,27 7,40.5 -5,13.5 -29.5,29.5 -40,33 -10.5,3.5 -30.5,4 -48,-7.5 -14,-9.2 -23.167,-27.17 -26,-35 -4.667,-9.5 -15.2,-34.1 -20,-56.5 -6,-28 0,-63.5 6,-75.5 6,-12 14,-4 19,1 5,5 0,28.5 -12.5,42.5 -12.5,14 -19,13.5 -31.5,9.5 -10,-3.2 -20.167,-28.67 -24,-41 -3.667,-12.33 -10.5,-41.4 -8.5,-59 2,-17.6 17.167,-36.33 24.5,-43.5 11.5,-11.5 35.5,-36.9 39.5,-46.5 5,-12 -2,-18.5 -9,-26.5 -7,-8 -15.5,5.5 -18,17 -2.5,11.5 2.5,28 11,39 8.5,11 13,6 28.5,3 15.5,-3 16,-14 30.5,-35.5 14.5,-21.5 15.5,-56 18.5,-82.5 2.4,-21.2 1,-51.83 0,-64.5 l -7.5,-66.5 -13.5,-75 c -1.833,-10.67 -6.1,-34.6 -8.5,-45 -2.4,-10.4 -18.333,-22 -26,-26.5 -9.333,-7 -32.1,-24.3 -48.5,-37.5 -16.4,-13.2 -32.167,-33.83 -38,-42.5 -5.667,-9.17 -18,-30.3 -22,-41.5 -5,-14 -7.5,-53 -7.5,-59 V 1121 c 0.333,-7.67 2.3,-27.4 7.5,-45 6.5,-22 23,-27.5 32.5,-37.5 9.5,-10 12.5,-30.5 12.5,-34 0,-3.5 3,-28.5 3.5,-44 0.5,-15.5 -1,-26.5 -3.5,-39 C 175,909 171,906 165,899.5 159,893 142.261,885 132.5,876.5 122.739,868 124,857 126,847.5 c 2,-9.5 6.5,-17 15.5,-17 9,0 5,6.5 4.5,29.5 -0.5,23 -8.5,39.5 -13.5,46 -5,6.5 -25,-4 -33,-6.5 -8,-2.5 -21,-15 -28.5,-23 -7.5,-8 -13,-25 -16.5,-39.5 -3.5,-14.5 -1,-16 -13,-22.5 C 31.9,809.3 16.5,825.333 10,834 4.50001,838.667 -3.99999,848.7 6.00001,851.5 18.5,855 27.5,837.5 30.5,830.5 c 3,-7 5,-30.5 4.5,-50.5 -0.5,-20 -3.5,-23 -4.5,-49.5 -1,-26.5 6,-43.5 11,-55.5 5,-12 14.5,-30 29.5,-40.5 15,-10.5 25.5,-6 44,6.5 14.8,10 21.167,34.833 22.5,46 1.167,6.333 -1.7,20.7 -22.5,27.5 C 89,723 90,684.5 89.5,675 89,665.5 86,634 82,618.5 78,603 59,617 56,602 53,587 86,579.5 102.5,580.5 119,581.5 101,599 82,602 c -19,3 2,-46 0,-54.5 -2,-8.5 2.5,-12.5 4,-19.5 1.5,-7 7,-20.5 8,-22.5 0.8,-1.6 7.667,-14 11,-20 L 122.5,463 c 2,-2.167 7.2,-7.4 12,-11 6,-4.5 12.5,-5.5 14.5,-6.5 2,-1 17.5,-1 26.5,-4.5 9,-3.5 13.5,-14.5 18,-27 4.5,-12.5 4.5,-27.5 4.5,-30.5 0,-3 -2,-5.5 -4.5,-5 -2.5,0.5 -3.5,5.5 -7.5,23.5 -3.2,14.4 3,30.333 6.5,36.5 1,1.833 4.4,4.9 10,2.5 5.6,-2.4 11.667,-2.667 14,-2.5 3.5,0.667 12.9,1.6 22.5,0 12,-2 7.5,-3.5 16.5,-7 9,-3.5 16.5,-16 22,-23.5 4.4,-6 13.167,-23.833 17,-32 l 13.5,-34 12.5,-27.5 16.5,-32 18,-26.5 c 4.167,-5.167 15.2,-16.3 26,-19.5 13.5,-4 19,3 27,11.5 6.4,6.8 17,30.167 21.5,41 2.333,5 6.2,18.3 3,31.5 -3.2,13.2 -14,13.833 -19,12.5 -4.833,-3 -14,-14.5 -12,-36.5 2,-22 16.5,-42.167 23.5,-49.5 6.333,-7.333 20.3,-23.5 25.5,-29.5 5.2,-6 19.5,-16.833 26,-21.5 5,-4.667 16.5,-16.4 22.5,-26 6,-9.6 7.5,-26.667 7.5,-34 l 4.5,-22.5 c 0.667,-2.333 3.9,-9.7 11.5,-20.5 7.6,-10.8 21.167,-12.8333 27,-12.5 l 29,1.5 c 6.167,-0.1667 20,-1.6 26,-6 7.5,-5.5 4,-12 4,-15.5 0,-3.5 -4,-6 -10.5,-6.5 -6.5,-0.5 -13.5,5 -16,6.5 -2.5,1.5 -2.5,6 0,13 2,5.6 10.167,14.6667 14,18.5 4.667,4.3333 16.8,13.1 28,13.5 14,0.5 18,-8 26.5,-13.5 6.8,-4.4 11.833,-4.8333 13.5,-4.5 C 671.5,87 694.1,83 724.5,71 754.9,59 770.167,19 774,0.5"
     stroke="#ffffff"
     id="path436"
     sodipodi:nodetypes="cccccccccsccccsssssssssscssssssssssssscsssssssssssssssssssssssssssscsssssscsssssssssssssssssssssssssssssssssssscssssssscssssssscssssscscssssssscccscscsscssssssssssssssscssssssscsssssssssccssssssscscssscccccsscscscscsccsccssssscsscsc" />
</svg>
