<svg width="398" height="299" viewBox="0 0 398 299" fill="none" xmlns="http://www.w3.org/2000/svg">
<path d="M1 298C5.85246 286.926 20.3352 263.51 39.4464 258.434C63.3354 252.088 91.7037 271.125 109.247 248.729C126.791 226.333 132.016 234.545 141.348 193.112C150.68 151.68 94.6898 155.039 109.247 174.076C123.805 193.112 160.385 212.149 179.421 193.112" stroke="white" stroke-width="2"/>
<path d="M165.489 186.022C151.415 174.442 151.969 163.402 156.537 155.488C158.513 152.065 156.309 145.436 152.426 144.699C138.321 142.019 121.427 134.708 117.573 118.235C113.043 98.8772 141.076 86.796 161.258 81.6672C164.537 80.8338 165.845 76.3082 163.924 73.5229C157.133 63.6755 152.208 46.494 165.489 25.947C186.605 -6.72137 223.151 37.381 223.151 30.0306C223.151 22.6802 233.709 6.34598 252.388 2.26243C265.244 -0.548065 273.812 19.813 277.679 34.7436C278.449 37.7175 282.132 39.0311 284.639 37.2565C297.047 28.4759 318.289 18.1184 334.414 25.947C350.481 33.7471 351.154 57.1461 348.822 72.6466C348.35 75.7807 351.408 78.6152 354.544 78.1537C367.686 76.2199 386.96 79.3894 394.513 102.718C402.542 127.518 381.63 143.112 366.187 149.611C363.517 150.735 362.449 154.31 363.517 157.003C367.058 165.94 366.686 181.861 347.408 200.723C328.565 219.16 309.822 208.693 298.297 196.227C295.634 193.346 289.275 194.839 288.068 198.572C283.416 212.953 271.634 230.6 246.703 235.025C219.933 239.775 213.271 217.127 213.27 198.344C213.269 194.463 207.533 191.29 203.976 192.841C194.26 197.078 180.22 198.142 165.489 186.022Z" stroke="white" stroke-width="2"/>
</svg>
