<svg width="393" height="406" viewBox="0 0 393 406" fill="none" xmlns="http://www.w3.org/2000/svg">
<path d="M392 3.71955C387.042 14.7461 378.442 143.811 359.283 148.704C335.335 154.82 307.15 135.512 289.393 157.739C271.635 179.966 266.489 171.704 256.76 213.046C247.032 254.387 303.052 251.564 288.677 232.389C274.303 213.214 237.907 193.828 218.689 212.681" stroke="white" stroke-width="2"/>
<path d="M232.552 219.904C246.514 231.618 245.855 242.653 241.21 250.522C239.202 253.926 241.342 260.576 245.218 261.351C259.297 264.165 276.12 271.638 279.816 288.147C284.16 307.548 256.013 319.36 235.782 324.295C232.495 325.097 231.145 329.61 233.039 332.413C239.735 342.325 244.495 359.553 231.018 379.972C209.59 412.436 173.468 367.986 173.398 375.336C173.327 382.686 162.613 398.918 143.896 402.823C131.014 405.51 122.641 385.068 118.918 370.101C118.176 367.119 114.506 365.771 111.981 367.521C99.4903 376.182 78.1504 386.336 62.1005 378.353C46.1091 370.399 45.6601 346.995 48.1408 331.518C48.6424 328.388 45.6121 325.525 42.4722 325.956C29.3124 327.764 10.0694 324.41 2.74053 301.01C-5.05075 276.134 16.0099 260.741 31.5142 254.39C34.1952 253.292 35.2965 249.728 34.2551 247.024C30.8 238.054 31.3241 222.137 50.7816 203.461C69.8005 185.205 88.4427 195.851 99.8476 208.427C102.483 211.333 108.856 209.902 110.099 206.18C114.888 191.844 126.839 174.311 151.811 170.125C178.625 165.632 185.07 188.343 184.892 207.125C184.855 211.005 190.56 214.234 194.132 212.717C203.888 208.573 217.938 207.643 232.552 219.904Z" stroke="white" stroke-width="2"/>
</svg>
