<?xml version="1.0" encoding="UTF-8" standalone="no"?>
<svg
   width="1143"
   height="5381"
   viewBox="0 0 1143 5381"
   fill="none"
   version="1.1"
   id="svg305"
   sodipodi:docname="pathInvertido.svg"
   inkscape:version="1.1.1 (3bf5ae0d25, 2021-09-20)"
   xmlns:inkscape="http://www.inkscape.org/namespaces/inkscape"
   xmlns:sodipodi="http://sodipodi.sourceforge.net/DTD/sodipodi-0.dtd"
   xmlns="http://www.w3.org/2000/svg"
   xmlns:svg="http://www.w3.org/2000/svg">
  <defs
     id="defs309" />
  <sodipodi:namedview
     id="namedview307"
     pagecolor="#ffffff"
     bordercolor="#666666"
     borderopacity="1.0"
     inkscape:pageshadow="2"
     inkscape:pageopacity="0.0"
     inkscape:pagecheckerboard="0"
     showgrid="false"
     inkscape:zoom="0.15015796"
     inkscape:cx="569.40037"
     inkscape:cy="2464.0718"
     inkscape:window-width="1920"
     inkscape:window-height="1046"
     inkscape:window-x="-11"
     inkscape:window-y="-11"
     inkscape:window-maximized="1"
     inkscape:current-layer="svg305" />
  <path
     d="m 707,5344.5 -7.5,33 289.5,-228 v -73 L 791.909,5280 1140.5,4903.5 l -135,-13 -283,441 L 961,4938 c -3.5,1.33 -12,1.4 -18,-9 -6,-10.4 -10.167,-47 -11.5,-64 l -224.5,466.5 100.914,-480.32 32.008,-8.67 c 1.833,-8.68 3,-34.7 -7.002,-69.4 -12.503,-43.38 -41.011,-38.17 -52.513,-34.7 -11.503,3.47 0,39.9 11.502,34.7 11.503,-5.21 25.507,-49.45 10.503,-78.95 -15.004,-29.49 -42.011,-5.2 -53.513,-26.89 -9.203,-17.35 -3.835,-35.57 0,-42.51 2.667,-41.93 8.702,-129.08 11.503,-142.27 3.5,-16.48 17.504,-34.7 31.507,-26.89 14.004,7.81 8.503,45.98 0,76.34 -8.502,30.36 -39.009,39.04 -58.514,46.85 -19.505,7.8 -7.502,-46.85 -34.009,-46.85 -26.507,0 -22.005,-43.38 -22.005,-60.73 0,-17.35 12.503,-29.49 22.005,-23.42 9.503,6.07 -2.501,38.17 -22.005,64.2 -19.505,26.02 -40.011,0 -65.017,0 -25.006,0 -28.507,19.95 -47.012,49.44 -18.504,29.5 -44.011,9.55 -58.515,9.55 -14.503,0 -38.509,-37.31 -53.513,-39.04 -15.004,-1.74 -24.006,20.82 -5.001,39.04 19.004,18.22 33.508,-26.9 58.514,-58.99 25.007,-32.1 20.006,-70.27 14.504,-136.2 -5.501,-65.93 -73.518,-72.87 -92.023,-96.3 -18.505,-23.42 -12.003,-98.89 7.502,-124.92 19.505,-26.02 51.013,8.68 53.513,26.03 2.501,17.35 -7.001,87.61 -27.006,46.84 -20.006,-40.77 18.504,-14.75 31.007,-14.75 12.503,0 17.005,-22.55 19.505,-39.03 2.501,-16.49 10.003,-26.03 31.508,-19.09 21.506,6.94 23.506,23.42 24.506,44.24 1.001,20.82 -3.5,45.98 -13.503,80.68 -10.003,34.7 -27.507,66.8 -62.016,88.49 -27.607,17.35 -88.522,7.23 -115.529,0 -14.67,-4.34 -49.712,-18.74 -72.518,-41.64 -28.507,-28.63 -51.013,-78.95 -58.515,-113.65 -7.502,-34.7 -6.001,-84.14 0,-133.59 4.801,-39.56 16.338,-70.27 21.505,-80.68 12.337,-31.52 37.01,-125.62 37.01,-249.85 0,-155.28 -52.513,-201.26 -19.005,-247.24 33.509,-45.97 44.011,-47.71 45.011,-86.75 1.001,-39.04 -7.001,-63.33 -26.006,-72.87 -19.005,-9.54 -43.511,14.75 -64.516,-6.07 -21.006,-20.82 -28.508,-40.77 -25.507,-58.99 3.001,-18.22 13.504,-51.19 25.507,-45.98 9.602,4.16 7.001,21.4 4.501,29.49 -4.537,8.39 -15.09,26.55 -21.006,32.1 -7.395,6.94 -25.006,15.62 -39.51,0 -14.503,-15.61 -33.508,-34.7 -23.506,-79.81 10.003,-45.11 27.007,-32.96 31.008,-110.17 4.001,-77.21 -21.505,-113.65 -33.508,-113.65 -12.003,0 -27.007,-0.86 -32.508,17.35 -4.402,14.58 3.5,29.21 8.002,34.7 1.333,5.21 9.402,14.06 31.007,7.81 27.007,-7.81 41.511,-9.54 64.517,-37.3 18.404,-22.21 31.674,-53.79 36.009,-66.8 3.501,-9.25 11.603,-34.01 16.004,-58.99 5.501,-31.23 13.503,-70.27 34.008,-91.09 16.405,-16.66 22.506,-23.13 23.506,-24.29 20.672,-4.92 67.517,-27.93 89.523,-80.68 27.507,-65.93 57.515,13.88 88.522,-94.56 31.008,-108.44 -50.512,-98.03 -30.007,-189.98 20.505,-91.96 63.516,-12.15 72.018,-117.99 6.802,-84.67 2.834,-119.71 0,-126.65 -3.168,-27.76 -15.104,-93.35 -37.51,-133.6 -28.007,-50.32 -46.011,-65.93 -58.514,-63.33 -12.503,2.6 -30.008,6.07 -52.514,31.23 -22.505,25.16 -52.013,54.66 -68.517,43.38 -16.504,-11.28 -44.511,-35.57 -30.508,-74.61 14.004,-39.04 61.582,-0.87 39.01,31.23 -22.571,32.1 -61.515,43.38 -86.021,21.69 -24.507,-21.69 -46.012,-68.53 -47.012,-104.97 -1.001,-36.44 10.002,-75.47 23.506,-61.59 13.503,13.88 -20.506,76.34 -41.511,54.65 -21.005,-21.69 -41.01,-87.62 -20.505,-124.05 20.505,-36.44 67.517,-53.79 49.512,-84.15 -18.004,-30.37 -30.007,31.23 -11.002,48.58 19.005,17.35 71.518,-9.55 77.519,-110.18 6.002,-100.63 -21.505,-203.86 -28.507,-248.97 -7.002,-45.11 -143.036,-72.87 -144.536,-216.01 -1.501,-143.14 42.01,-106.71 49.512,-157.89 7.502,-51.185 17.505,-99.765 -29.007,-123.188 -46.512,-23.423 0,-78.944 0,-48.581 0,30.363 -3.501,71.136 -25.007,66.798 C 97.234,902.262 57.724,876.237 52.7227,831.993 47.7215,787.75 -21.7961,855.416 8.71162,851.946 39.2193,848.476 35.2183,777.34 30.2171,739.169 c -5.0013,-38.17 17.5044,-78.943 26.0065,-87.618 8.5022,-8.676 30.5077,-32.966 50.0124,-16.483 19.505,16.483 39.51,52.918 26.007,67.666 -13.504,14.748 -31.008,22.555 -39.01,0 C 85.231,680.179 77.7291,583.017 81.23,574.342 c 3.5008,-8.675 -7.5019,-42.508 25.006,-90.221 32.508,-47.714 46.012,-33.833 66.517,-41.641 20.505,-7.808 29.508,-62.461 20.505,-62.461 -9.002,0 -14.003,73.739 9.503,62.461 23.506,-11.278 56.014,26.893 97.524,-80.679 41.511,-107.571 77.52,-139.669 100.526,-118.849 23.006,20.82 35.009,63.328 31.008,76.341 -4.001,13.013 -26.007,30.363 -31.008,-6.94 C 395.809,275.05 441.494,222.483 465,206 c 23.506,-16.483 36.999,-34.782 39,-53 1.6,-14.574 0,0 4,-31 3.5,-13.667 16.3,-40.8 39.5,-40 29,1 57,5.5 59.5,-14.5 2.5,-20 -27,-10 -27.5,0 -0.5,10 35.5,53 60,31.5 24.5,-21.5 111,0.5 134,-98"
     stroke="#ffffff"
     stroke-width="2"
     id="path303"
     sodipodi:nodetypes="cccccccccsccccssccccssccssscscscsccccccssscscccsscsccscscccccssccccccccccccccscscccccsccscsccsscssccccsscssscsscsccssssc" />
</svg>
