<svg width="484" height="284" viewBox="0 0 484 284" fill="none" xmlns="http://www.w3.org/2000/svg">
<path d="M1 127.357C8.96633 133.627 30.703 145.169 53.9192 141.181C77.1354 137.192 86.8088 130.303 88.7434 127.357C90.7919 126.752 96.8008 121.147 104.448 103.561C112.096 85.9754 101.262 87.9243 94.8889 91.0971C93.068 94.1943 94.1378 104.468 112.984 120.785C131.83 137.102 158.847 137.857 170 136.195" stroke="white" stroke-width="2"/>
<path d="M170 217V5C170 2.79086 171.791 1 174 1H479C481.209 1 483 2.79086 483 5V217C483 219.209 481.209 221 479 221H174C171.791 221 170 219.209 170 217Z" stroke="white" stroke-width="2"/>
<path d="M303 222V268C305.5 272.333 314.8 281.2 332 282C349.2 282.8 359.167 274.667 362 270.5V222" stroke="white" stroke-width="2"/>
<rect x="191" y="15" width="275" height="191" rx="3" stroke="white" stroke-width="2"/>
<path d="M284 93L249.832 111.365C247.181 112.79 246.994 116.521 249.488 118.204L284 141.5" stroke="white" stroke-width="2"/>
<path d="M370 93L400.947 111.673C403.368 113.134 403.55 116.578 401.296 118.286L370 142" stroke="white" stroke-width="2"/>
</svg>
