<svg width="847" height="4993" viewBox="0 0 847 4993" fill="none" xmlns="http://www.w3.org/2000/svg">
<path d="M773.5 1C750.5 99.5 664 77.5 639.5 99C615 120.5 579 77.5 579.5 67.5C580 57.5 609.5 47.5 607 67.5C604.5 87.5 576.5 83 547.5 82C524.3 81.2 511.5 108.333 508 122C504 153 505.6 138.426 504 153C501.999 171.218 488.506 189.517 465 206C441.494 222.483 395.809 275.05 400.811 312.353C405.812 349.656 427.818 332.306 431.819 319.293C435.82 306.28 423.817 263.772 400.811 242.952C377.805 222.132 341.796 254.23 300.285 361.801C258.775 469.373 226.267 431.202 202.761 442.48C179.255 453.758 184.256 380.019 193.258 380.019C202.261 380.019 193.258 434.672 172.753 442.48C152.248 450.288 138.744 436.407 106.236 484.121C73.7281 531.834 84.7308 565.667 81.23 574.342C77.7291 583.017 85.231 680.179 93.233 702.734C101.235 725.289 118.739 717.482 132.243 702.734C145.746 687.986 125.741 651.551 106.236 635.068C86.7313 618.585 64.7258 642.875 56.2236 651.551C47.7215 660.226 25.2158 700.999 30.2171 739.169C35.2183 777.34 39.2193 848.476 8.71162 851.946C-21.7961 855.416 47.7215 787.75 52.7227 831.993C57.724 876.237 97.234 902.262 118.739 906.599C140.245 910.937 143.746 870.164 143.746 839.801C143.746 809.438 97.234 864.959 143.746 888.382C190.258 911.805 180.255 960.385 172.753 1011.57C165.251 1062.75 121.74 1026.32 123.241 1169.46C124.741 1312.6 260.775 1340.36 267.777 1385.47C274.779 1430.58 302.286 1533.81 296.284 1634.44C290.283 1735.07 237.77 1761.97 218.765 1744.62C199.76 1727.27 211.763 1665.67 229.767 1696.04C247.772 1726.4 200.76 1743.75 180.255 1780.19C159.75 1816.62 179.755 1882.55 200.76 1904.24C221.765 1925.93 255.774 1863.47 242.271 1849.59C228.767 1835.71 217.764 1874.74 218.765 1911.18C219.765 1947.62 241.27 1994.46 265.777 2016.15C290.283 2037.84 329.227 2026.56 351.798 1994.46C374.37 1962.36 326.792 1924.19 312.788 1963.23C298.785 2002.27 326.792 2026.56 343.296 2037.84C359.8 2049.12 389.308 2019.62 411.813 1994.46C434.319 1969.3 451.824 1965.83 464.327 1963.23C476.83 1960.63 494.834 1976.24 522.841 2026.56C545.247 2066.81 557.183 2132.4 560.351 2160.16C563.185 2167.1 567.153 2202.14 560.351 2286.81C551.849 2392.65 508.838 2312.84 488.333 2404.8C467.828 2496.75 549.348 2486.34 518.34 2594.78C487.333 2703.22 457.325 2623.41 429.818 2689.34C407.812 2742.09 360.967 2765.1 340.295 2770.02C339.295 2771.18 333.194 2777.65 316.789 2794.31C296.284 2815.13 288.282 2854.17 282.781 2885.4C278.38 2910.38 270.278 2935.14 266.777 2944.39C262.442 2957.4 249.172 2988.98 230.768 3011.19C207.762 3038.95 193.258 3040.68 166.251 3048.49C144.646 3054.74 136.577 3045.89 135.244 3040.68C130.742 3035.19 122.84 3020.56 127.242 3005.98C132.743 2987.77 147.747 2988.63 159.75 2988.63C171.753 2988.63 197.259 3025.07 193.258 3102.28C189.257 3179.49 172.253 3167.34 162.25 3212.45C152.248 3257.56 171.253 3276.65 185.756 3292.26C200.26 3307.88 217.871 3299.2 225.266 3292.26C231.182 3286.71 241.735 3268.55 246.272 3260.16C248.772 3252.07 251.373 3234.83 241.771 3230.67C229.768 3225.46 219.265 3258.43 216.264 3276.65C213.263 3294.87 220.765 3314.82 241.771 3335.64C262.776 3356.46 287.282 3332.17 306.287 3341.71C325.292 3351.25 333.294 3375.54 332.293 3414.58C331.293 3453.62 320.791 3455.36 287.282 3501.33C253.774 3547.31 306.287 3593.29 306.287 3748.57C306.287 3872.8 281.614 3966.9 269.277 3998.42C264.11 4008.83 252.573 4039.54 247.772 4079.1C241.771 4128.55 240.27 4177.99 247.772 4212.69C255.274 4247.39 277.78 4297.71 306.287 4326.34C329.093 4349.24 364.135 4363.64 378.805 4367.98C405.812 4375.21 466.727 4385.33 494.334 4367.98C528.843 4346.29 546.347 4314.19 556.35 4279.49C566.353 4244.79 570.854 4219.63 569.853 4198.81C568.853 4177.99 566.853 4161.51 545.347 4154.57C523.842 4147.63 516.34 4157.17 513.839 4173.66C511.339 4190.14 506.837 4212.69 494.334 4212.69C481.831 4212.69 443.321 4186.67 463.327 4227.44C483.332 4268.21 492.834 4197.95 490.333 4180.6C487.833 4163.25 456.325 4128.55 436.82 4154.57C417.315 4180.6 410.813 4256.07 429.318 4279.49C447.823 4302.92 515.84 4309.86 521.341 4375.79C526.843 4441.72 531.844 4479.89 506.837 4511.99C481.831 4544.08 467.327 4589.2 448.323 4570.98C429.318 4552.76 438.32 4530.2 453.324 4531.94C468.328 4533.67 492.334 4570.98 506.837 4570.98C521.341 4570.98 546.848 4590.93 565.352 4561.43C583.857 4531.94 587.358 4511.99 612.364 4511.99C637.37 4511.99 657.876 4538.01 677.381 4511.99C696.885 4485.96 708.889 4453.86 699.386 4447.79C689.884 4441.72 677.381 4453.86 677.381 4471.21C677.381 4488.56 672.879 4531.94 699.386 4531.94C725.893 4531.94 713.89 4586.59 733.395 4578.79C752.9 4570.98 783.407 4562.3 791.909 4531.94C800.412 4501.58 805.913 4463.41 791.909 4455.6C777.906 4447.79 763.902 4466.01 760.402 4482.49C757.601 4495.68 751.566 4582.83 748.899 4624.76C745.064 4631.7 739.696 4649.92 748.899 4667.27C760.401 4688.96 787.408 4664.67 802.412 4694.16C817.416 4723.66 803.412 4767.9 791.909 4773.11C780.407 4778.31 768.904 4741.88 780.407 4738.41C791.909 4734.94 820.417 4729.73 832.92 4773.11C842.922 4807.81 841.755 4833.83 839.922 4842.51C843.423 4870.51 838.721 4938.6 791.909 4987L846 4974.5L785.5 4991V4937.5" stroke="white" stroke-width="2"/>
</svg>
