<svg width="1151" height="5381" viewBox="0 0 1151 5381" fill="none" xmlns="http://www.w3.org/2000/svg">
<path d="M774 0.5C770.167 19 754.9 59 724.5 71C694.1 83 671.5 87 664 87.5C662.333 87.1667 657.3 87.6 650.5 92C642 97.5 638 106 624 105.5C612.8 105.1 600.667 96.3333 596 92C592.167 88.1667 584 79.1 582 73.5C579.5 66.5 579.5 62 582 60.5C584.5 59 591.5 53.5 598 54C604.5 54.5 608.5 57 608.5 60.5C608.5 64 612 70.5 604.5 76C598.5 80.4 584.667 81.8333 578.5 82L549.5 80.5C543.667 80.1667 530.1 82.2 522.5 93C514.9 103.8 511.667 111.167 511 113.5L506.5 136C506.5 143.333 505 160.4 499 170C493 179.6 481.5 191.333 476.5 196C470 200.667 455.7 211.5 450.5 217.5C445.3 223.5 431.333 239.667 425 247C418 254.333 403.5 274.5 401.5 296.5C399.5 318.5 408.667 330 413.5 333C418.5 334.333 429.3 333.7 432.5 320.5C435.7 307.3 431.833 294 429.5 289C425 278.167 414.4 254.8 408 248C400 239.5 394.5 232.5 381 236.5C370.2 239.7 359.167 250.833 355 256L337 282.5L320.5 314.5L308 342L294.5 376C290.667 384.167 281.9 402 277.5 408C272 415.5 264.5 428 255.5 431.5C246.5 435 251 436.5 239 438.5C229.4 440.1 220 439.167 216.5 438.5C214.167 438.333 208.1 438.6 202.5 441C196.9 443.4 193.5 440.333 192.5 438.5C189 432.333 182.8 416.4 186 402C190 384 191 379 193.5 378.5C196 378 198 380.5 198 383.5C198 386.5 198 401.5 193.5 414C189 426.5 184.5 437.5 175.5 441C166.5 444.5 151 444.5 149 445.5C147 446.5 140.5 447.5 134.5 452C129.7 455.6 124.5 460.833 122.5 463L105 485.5C101.667 491.5 94.8 503.9 94 505.5C93 507.5 87.5 521 86 528C84.5 535 80 539 82 547.5C84 556 63 605 82 602C101 599 119 581.5 102.5 580.5C86 579.5 53 587 56 602C59 617 78 603 82 618.5C86 634 89 665.5 89.5 675C90 684.5 89 723 115 714.5C135.8 707.7 138.667 693.333 137.5 687C136.167 675.833 129.8 651 115 641C96.5 628.5 86 624 71 634.5C56 645 46.5 663 41.5 675C36.5 687 29.5 704 30.5 730.5C31.5 757 34.5 760 35 780C35.5 800 33.5 823.5 30.5 830.5C27.5 837.5 18.5 855 6.00001 851.5C-3.99999 848.7 4.50001 838.667 10 834C16.5 825.333 31.9 809.3 41.5 814.5C53.5 821 51 822.5 54.5 837C58 851.5 63.5 868.5 71 876.5C78.5 884.5 91.5 897 99.5 899.5C107.5 902 127.5 912.5 132.5 906C137.5 899.5 145.5 883 146 860C146.5 837 150.5 830.5 141.5 830.5C132.5 830.5 128 838 126 847.5C124 857 122.739 868 132.5 876.5C142.261 885 159 893 165 899.5C171 906 175 909 177.5 921.5C180 934 181.5 945 181 960.5C180.5 976 177.5 1001 177.5 1004.5C177.5 1008 174.5 1028.5 165 1038.5C155.5 1048.5 139 1054 132.5 1076C127.3 1093.6 125.333 1113.33 125 1121C125 1135.5 125 1165.7 125 1170.5C125 1176.5 127.5 1215.5 132.5 1229.5C136.5 1240.7 148.833 1261.83 154.5 1271C160.333 1279.67 176.1 1300.3 192.5 1313.5C208.9 1326.7 231.667 1344 241 1351C248.667 1355.5 264.6 1367.1 267 1377.5C269.4 1387.9 273.667 1411.83 275.5 1422.5L289 1497.5L296.5 1564C297.5 1576.67 298.9 1607.3 296.5 1628.5C293.5 1655 292.5 1689.5 278 1711C263.5 1732.5 263 1743.5 247.5 1746.5C232 1749.5 227.5 1754.5 219 1743.5C210.5 1732.5 205.5 1716 208 1704.5C210.5 1693 219 1679.5 226 1687.5C233 1695.5 240 1702 235 1714C231 1723.6 207 1749 195.5 1760.5C188.167 1767.67 173 1786.4 171 1804C169 1821.6 175.833 1850.67 179.5 1863C183.333 1875.33 193.5 1900.8 203.5 1904C216 1908 222.5 1908.5 235 1894.5C247.5 1880.5 252.5 1857 247.5 1852C242.5 1847 234.5 1839 228.5 1851C222.5 1863 216.5 1898.5 222.5 1926.5C227.3 1948.9 237.833 1973.5 242.5 1983C245.333 1990.83 254.5 2008.8 268.5 2018C286 2029.5 306 2029 316.5 2025.5C327 2022 351.5 2006 356.5 1992.5C361.5 1979 364.5 1956.5 349.5 1952C334.5 1947.5 326 1944.5 316.5 1957C307 1969.5 309.5 1992 313 1999.5C316.5 2007 333.5 2035.5 349.5 2039C362.3 2041.8 384.5 2023.17 394 2013.5C400.5 2005 416.7 1985.8 429.5 1977C445.5 1966 462.5 1958 473 1962C483.5 1966 498 1980 502.5 1988C507 1996 527 2026 530 2032.5C533 2039 544.5 2065 547.5 2080.5C550.5 2096 561 2135.5 562 2152C563 2168.5 565 2183.5 565 2214.5C565 2239.3 563 2266.17 562 2276.5C561.833 2286.33 560.4 2308.7 556 2319.5C550.5 2333 550.5 2341 531.5 2349C512.5 2357 514 2349 506 2362.5C498 2376 489.5 2394 487.5 2417C485.5 2440 485 2454.5 495.5 2473.5C506 2492.5 517.5 2498.5 521 2517C524.5 2535.5 531.5 2553 521 2584.5C510.5 2616 511.5 2631.5 500.5 2641C489.5 2650.5 477.5 2660.5 464 2657.5C450.5 2654.5 435 2676 433 2683C431 2690 423 2714 405.5 2730C388 2746 368.5 2758 351.5 2765C334.5 2772 319 2789.5 312 2799.5C305 2809.5 293.5 2836.5 287 2869.5C280.5 2902.5 277 2925 266 2952.5C255 2980 242.5 2998.5 234 3010C225.5 3021.5 202.5 3039.5 188 3045C173.5 3050.5 146 3060 137 3045C128 3030 119 3009.5 128 2998.5C137 2987.5 159.5 2982 166 2988C172.5 2994 184.5 2999.5 188 3024.5C191.5 3049.5 196 3056 196 3084.5C196 3113 191 3142 188 3152.5C185 3163 165 3187 162 3213C159 3239 159 3259 172 3276C185 3293 199 3308 213 3302.5C227 3297 238.5 3281.5 243.5 3271C248.5 3260.5 256.5 3234 248 3231.5C239.5 3229 232.5 3227 226.5 3245.5C220.5 3264 215 3264.5 217.5 3287.5C220 3310.5 234.5 3326.5 243.5 3334.5C252.5 3342.5 270 3344.5 290 3339.5C310 3334.5 327 3352.5 328 3359.5C329 3366.5 341 3398.5 334.5 3423C328 3447.5 318.5 3464.5 301 3484C283.5 3503.5 275 3512.5 277 3535C278.6 3553 290 3600.17 295.5 3621.5C298.5 3638.33 304.7 3675.7 305.5 3690.5C306.5 3709 305.5 3778 305.5 3791.5C305.5 3805 304.5 3832.5 301 3855.5C297.5 3878.5 290 3937.5 285.5 3951.5C281 3965.5 252.5 4029.5 249.5 4071.5C246.5 4113.5 241.5 4140.5 244 4184C246 4218.8 262.167 4258.5 270 4274C274.333 4284.83 288.6 4311.2 311 4330C339 4353.5 383.5 4372 399 4375C414.5 4378 470 4383 482 4375C494 4367 525 4357 540 4325.5C555 4294 569 4243 570 4231.5C571 4220 579.5 4166 555 4157C530.5 4148 527.5 4149 522.5 4157C517.5 4165 519.5 4204 504.5 4209.5C489.5 4215 474 4204.5 468 4205.5C462 4206.5 458.5 4214 468 4228.5C477.5 4243 483.5 4234.5 484 4231.5C484.5 4228.5 492.5 4217.5 492 4189C491.5 4160.5 471 4146.5 462 4145C453 4143.5 441.5 4142 431 4165.5C420.5 4189 420.5 4183 419.5 4209.5C418.5 4236 419 4265 428 4276.5C437 4288 469 4300.5 476.5 4306C484 4311.5 503.5 4319 511 4339.5C518.5 4360 520 4351 523.5 4383.5C527 4416 527.5 4438 527 4458.5C526.5 4479 514.5 4500 502 4519.5C489.5 4539 477.5 4559 473 4565.5C468.5 4572 456.5 4585 445.5 4569C434.5 4553 435.5 4531.5 445.5 4529.5C455.5 4527.5 465 4531.5 469 4538C473 4544.5 489.5 4569 502 4569C514.5 4569 524.5 4571.5 534.5 4575.5C544.5 4579.5 563 4576.5 567 4560.5C570.2 4547.7 584.667 4527.83 591.5 4519.5C598.5 4513.5 616.4 4504 632 4514C651.5 4526.5 661 4525 668 4519.5C675 4514 691 4500.5 696.5 4479.5C702 4458.5 709.5 4445 696.5 4444.5C683.5 4444 679.5 4452.5 679 4471.5C678.5 4490.5 675.5 4515 689 4526.5C702.5 4538 705 4525.5 712 4534C719 4542.5 716.5 4555 724.5 4569C732.5 4583 721.5 4582 741.5 4575.5C761.5 4569 782.5 4556.5 788.5 4543.5C794.5 4530.5 807.5 4484.5 803 4471.5C798.5 4458.5 792 4448.5 779 4453.5C766 4458.5 761 4469.5 758.5 4506.5C756.5 4536.1 753.333 4580.5 752 4599C739.167 4617 720.7 4652.9 749.5 4652.5C785.5 4652 772 4635 762 4635.5C752 4636 735.5 4663 746 4674.5C756.5 4686 782.5 4672 793.5 4679.5C804.5 4687 814.5 4704 811 4723.5C807.5 4743 812.5 4781.5 793.5 4777.5C774.5 4773.5 771.5 4742.5 777 4739C782.5 4735.5 787.5 4728 801.5 4733.5C815.5 4739 830.5 4745.5 835.5 4772.5C840.5 4799.5 844.5 4803.5 842.5 4813C840.5 4822.5 843.5 4837.5 839.5 4841.5L808.5 4849.5L716.5 5327.5L937 4865.5C939 4891.83 946.6 4942.9 961 4936.5C975.4 4930.1 983.333 4920.5 985.5 4916.5L732 5333L1014 4891L1149.5 4903L799 5281.5L998.5 5077.5V5159L716.5 5379.5V5341" stroke="white"/>
</svg>
